<svg width="402" height="308" viewBox="0 0 402 308" fill="none" xmlns="http://www.w3.org/2000/svg">
<g filter="url(#filter0_d_358_2)">
<rect x="4.5" y="0.5" width="393" height="299" rx="29.5" fill="#FF0000" stroke="white"/>
<rect x="39.9648" y="32.1084" width="321.003" height="240.301" rx="28" stroke="white" stroke-width="10"/>
<path d="M86.1438 162.618V161.962C86.1438 159.483 86.498 157.202 87.2063 155.118C87.9146 153.014 88.9459 151.191 90.3 149.649C91.6542 148.108 93.3209 146.91 95.3 146.056C97.2792 145.181 99.55 144.743 102.113 144.743C104.675 144.743 106.956 145.181 108.956 146.056C110.956 146.91 112.633 148.108 113.988 149.649C115.363 151.191 116.404 153.014 117.113 155.118C117.821 157.202 118.175 159.483 118.175 161.962V162.618C118.175 165.077 117.821 167.358 117.113 169.462C116.404 171.545 115.363 173.368 113.988 174.931C112.633 176.472 110.967 177.67 108.988 178.524C107.008 179.379 104.738 179.806 102.175 179.806C99.6125 179.806 97.3313 179.379 95.3313 178.524C93.3521 177.67 91.675 176.472 90.3 174.931C88.9459 173.368 87.9146 171.545 87.2063 169.462C86.498 167.358 86.1438 165.077 86.1438 162.618ZM95.1438 161.962V162.618C95.1438 164.035 95.2688 165.358 95.5188 166.587C95.7688 167.816 96.1646 168.899 96.7063 169.837C97.2688 170.754 97.998 171.472 98.8938 171.993C99.7896 172.514 100.883 172.774 102.175 172.774C103.425 172.774 104.498 172.514 105.394 171.993C106.29 171.472 107.008 170.754 107.55 169.837C108.092 168.899 108.488 167.816 108.738 166.587C109.008 165.358 109.144 164.035 109.144 162.618V161.962C109.144 160.587 109.008 159.295 108.738 158.087C108.488 156.858 108.081 155.774 107.519 154.837C106.977 153.879 106.258 153.129 105.363 152.587C104.467 152.045 103.383 151.774 102.113 151.774C100.842 151.774 99.7584 152.045 98.8625 152.587C97.9875 153.129 97.2688 153.879 96.7063 154.837C96.1646 155.774 95.7688 156.858 95.5188 158.087C95.2688 159.295 95.1438 160.587 95.1438 161.962ZM143.706 171.087V145.368H152.706V179.181H144.238L143.706 171.087ZM144.706 164.149L147.363 164.087C147.363 166.337 147.102 168.431 146.581 170.368C146.06 172.285 145.279 173.952 144.238 175.368C143.196 176.764 141.883 177.858 140.3 178.649C138.717 179.42 136.852 179.806 134.706 179.806C133.06 179.806 131.54 179.577 130.144 179.118C128.769 178.639 127.581 177.899 126.581 176.899C125.602 175.879 124.831 174.577 124.269 172.993C123.727 171.389 123.456 169.462 123.456 167.212V145.368H132.456V167.274C132.456 168.274 132.571 169.118 132.8 169.806C133.05 170.493 133.394 171.056 133.831 171.493C134.269 171.931 134.779 172.243 135.363 172.431C135.967 172.618 136.633 172.712 137.363 172.712C139.217 172.712 140.675 172.337 141.738 171.587C142.821 170.837 143.581 169.816 144.019 168.524C144.477 167.212 144.706 165.754 144.706 164.149ZM171.113 171.962L180.175 133.681H185.238L186.394 140.056L176.738 179.181H171.3L171.113 171.962ZM166.456 133.681L173.956 171.962L173.331 179.181H167.269L157.175 133.681H166.456ZM194.363 171.806L201.769 133.681H211.05L200.988 179.181H194.925L194.363 171.806ZM188.081 133.681L197.206 172.118L196.956 179.181H191.519L181.8 140.024L183.05 133.681H188.081ZM232.769 171.556V156.493C232.769 155.41 232.592 154.483 232.238 153.712C231.883 152.92 231.331 152.306 230.581 151.868C229.852 151.431 228.904 151.212 227.738 151.212C226.738 151.212 225.873 151.389 225.144 151.743C224.415 152.077 223.852 152.566 223.456 153.212C223.06 153.837 222.863 154.577 222.863 155.431H213.863C213.863 153.993 214.196 152.629 214.863 151.337C215.529 150.045 216.498 148.91 217.769 147.931C219.04 146.931 220.55 146.149 222.3 145.587C224.071 145.024 226.05 144.743 228.238 144.743C230.863 144.743 233.196 145.181 235.238 146.056C237.279 146.931 238.883 148.243 240.05 149.993C241.238 151.743 241.831 153.931 241.831 156.556V171.024C241.831 172.879 241.946 174.399 242.175 175.587C242.404 176.754 242.738 177.774 243.175 178.649V179.181H234.081C233.644 178.264 233.31 177.118 233.081 175.743C232.873 174.347 232.769 172.952 232.769 171.556ZM233.956 158.587L234.019 163.681H228.988C227.8 163.681 226.769 163.816 225.894 164.087C225.019 164.358 224.3 164.743 223.738 165.243C223.175 165.722 222.758 166.285 222.488 166.931C222.238 167.577 222.113 168.285 222.113 169.056C222.113 169.827 222.29 170.524 222.644 171.149C222.998 171.754 223.508 172.233 224.175 172.587C224.842 172.92 225.623 173.087 226.519 173.087C227.873 173.087 229.05 172.816 230.05 172.274C231.05 171.733 231.821 171.066 232.363 170.274C232.925 169.483 233.217 168.733 233.238 168.024L235.613 171.837C235.279 172.691 234.821 173.577 234.238 174.493C233.675 175.41 232.956 176.274 232.081 177.087C231.206 177.879 230.154 178.535 228.925 179.056C227.696 179.556 226.238 179.806 224.55 179.806C222.404 179.806 220.456 179.379 218.706 178.524C216.977 177.649 215.602 176.452 214.581 174.931C213.581 173.389 213.081 171.639 213.081 169.681C213.081 167.91 213.415 166.337 214.081 164.962C214.748 163.587 215.727 162.431 217.019 161.493C218.331 160.535 219.967 159.816 221.925 159.337C223.883 158.837 226.154 158.587 228.738 158.587H233.956ZM247.331 162.618V161.962C247.331 159.483 247.685 157.202 248.394 155.118C249.102 153.014 250.133 151.191 251.488 149.649C252.842 148.108 254.508 146.91 256.488 146.056C258.467 145.181 260.738 144.743 263.3 144.743C265.863 144.743 268.144 145.181 270.144 146.056C272.144 146.91 273.821 148.108 275.175 149.649C276.55 151.191 277.592 153.014 278.3 155.118C279.008 157.202 279.363 159.483 279.363 161.962V162.618C279.363 165.077 279.008 167.358 278.3 169.462C277.592 171.545 276.55 173.368 275.175 174.931C273.821 176.472 272.154 177.67 270.175 178.524C268.196 179.379 265.925 179.806 263.363 179.806C260.8 179.806 258.519 179.379 256.519 178.524C254.54 177.67 252.863 176.472 251.488 174.931C250.133 173.368 249.102 171.545 248.394 169.462C247.685 167.358 247.331 165.077 247.331 162.618ZM256.331 161.962V162.618C256.331 164.035 256.456 165.358 256.706 166.587C256.956 167.816 257.352 168.899 257.894 169.837C258.456 170.754 259.185 171.472 260.081 171.993C260.977 172.514 262.071 172.774 263.363 172.774C264.613 172.774 265.685 172.514 266.581 171.993C267.477 171.472 268.196 170.754 268.738 169.837C269.279 168.899 269.675 167.816 269.925 166.587C270.196 165.358 270.331 164.035 270.331 162.618V161.962C270.331 160.587 270.196 159.295 269.925 158.087C269.675 156.858 269.269 155.774 268.706 154.837C268.165 153.879 267.446 153.129 266.55 152.587C265.654 152.045 264.571 151.774 263.3 151.774C262.029 151.774 260.946 152.045 260.05 152.587C259.175 153.129 258.456 153.879 257.894 154.837C257.352 155.774 256.956 156.858 256.706 158.087C256.456 159.295 256.331 160.587 256.331 161.962ZM304.894 171.087V145.368H313.894V179.181H305.425L304.894 171.087ZM305.894 164.149L308.55 164.087C308.55 166.337 308.29 168.431 307.769 170.368C307.248 172.285 306.467 173.952 305.425 175.368C304.383 176.764 303.071 177.858 301.488 178.649C299.904 179.42 298.04 179.806 295.894 179.806C294.248 179.806 292.727 179.577 291.331 179.118C289.956 178.639 288.769 177.899 287.769 176.899C286.79 175.879 286.019 174.577 285.456 172.993C284.915 171.389 284.644 169.462 284.644 167.212V145.368H293.644V167.274C293.644 168.274 293.758 169.118 293.988 169.806C294.238 170.493 294.581 171.056 295.019 171.493C295.456 171.931 295.967 172.243 296.55 172.431C297.154 172.618 297.821 172.712 298.55 172.712C300.404 172.712 301.863 172.337 302.925 171.587C304.008 170.837 304.769 169.816 305.206 168.524C305.665 167.212 305.894 165.754 305.894 164.149Z" fill="white"/>
<path d="M87.2063 155.118L88.1531 155.44L88.154 155.437L87.2063 155.118ZM95.3 146.056L95.6963 146.974L95.7044 146.97L95.3 146.056ZM108.956 146.056L108.555 146.972L108.564 146.975L108.956 146.056ZM113.988 149.649L113.236 150.309L113.241 150.315L113.988 149.649ZM117.113 155.118L116.165 155.437L116.166 155.44L117.113 155.118ZM117.113 169.462L118.059 169.784L118.06 169.781L117.113 169.462ZM113.988 174.931L113.237 174.27L113.236 174.271L113.988 174.931ZM95.3313 178.524L94.935 179.443L94.9385 179.444L95.3313 178.524ZM90.3 174.931L89.5444 175.586L89.549 175.591L89.5538 175.596L90.3 174.931ZM87.2063 169.462L86.2586 169.781L86.2595 169.784L87.2063 169.462ZM96.7063 169.837L95.8404 170.337L95.8471 170.349L95.854 170.36L96.7063 169.837ZM107.55 169.837L108.411 170.346L108.416 170.337L107.55 169.837ZM108.738 166.587L107.761 166.372L107.759 166.38L107.758 166.388L108.738 166.587ZM108.738 158.087L107.758 158.286L107.76 158.296L107.762 158.306L108.738 158.087ZM107.519 154.837L106.648 155.329L106.655 155.34L106.661 155.351L107.519 154.837ZM98.8625 152.587L98.3451 151.731L98.3362 151.737L98.8625 152.587ZM96.7063 154.837L95.8439 154.331L95.8404 154.337L96.7063 154.837ZM95.5188 158.087L96.4981 158.29L96.4987 158.286L95.5188 158.087ZM87.1438 162.618V161.962H85.1438V162.618H87.1438ZM87.1438 161.962C87.1438 159.579 87.4841 157.408 88.1531 155.44L86.2595 154.796C85.5118 156.996 85.1438 159.387 85.1438 161.962H87.1438ZM88.154 155.437C88.8236 153.448 89.7916 151.744 91.0514 150.309L89.5487 148.99C88.1002 150.639 87.0056 152.58 86.2586 154.799L88.154 155.437ZM91.0514 150.309C92.3028 148.885 93.8461 147.772 95.6963 146.974L94.9038 145.138C92.7957 146.047 91.0056 147.331 89.5487 148.99L91.0514 150.309ZM95.7044 146.97C97.5349 146.161 99.664 145.743 102.113 145.743V143.743C99.4361 143.743 97.0235 144.2 94.8957 145.141L95.7044 146.97ZM102.113 145.743C104.561 145.743 106.702 146.161 108.555 146.972L109.357 145.14C107.211 144.201 104.789 143.743 102.113 143.743V145.743ZM108.564 146.975C110.435 147.774 111.987 148.887 113.236 150.309L114.739 148.99C113.28 147.329 111.478 146.045 109.349 145.136L108.564 146.975ZM113.241 150.315C114.52 151.749 115.496 153.451 116.165 155.437L118.06 154.799C117.312 152.577 116.205 150.634 114.734 148.984L113.241 150.315ZM116.166 155.44C116.835 157.408 117.175 159.579 117.175 161.962H119.175C119.175 159.387 118.807 156.996 118.059 154.796L116.166 155.44ZM117.175 161.962V162.618H119.175V161.962H117.175ZM117.175 162.618C117.175 164.98 116.835 167.152 116.165 169.143L118.06 169.781C118.807 167.564 119.175 165.173 119.175 162.618H117.175ZM116.166 169.14C115.497 171.106 114.52 172.812 113.237 174.27L114.738 175.591C116.205 173.924 117.311 171.985 118.059 169.784L116.166 169.14ZM113.236 174.271C111.985 175.696 110.441 176.808 108.591 177.606L109.384 179.443C111.492 178.533 113.282 177.249 114.739 175.591L113.236 174.271ZM108.591 177.606C106.759 178.397 104.627 178.806 102.175 178.806V180.806C104.849 180.806 107.258 180.36 109.384 179.443L108.591 177.606ZM102.175 178.806C99.7238 178.806 97.5798 178.397 95.7241 177.605L94.9385 179.444C97.0828 180.36 99.5013 180.806 102.175 180.806V178.806ZM95.7275 177.606C93.8761 176.807 92.3202 175.693 91.0463 174.265L89.5538 175.596C91.0299 177.251 92.8282 178.533 94.935 179.443L95.7275 177.606ZM91.0557 174.276C89.7915 172.817 88.8225 171.109 88.1531 169.14L86.2595 169.784C87.0067 171.982 88.1003 173.919 89.5444 175.586L91.0557 174.276ZM88.154 169.143C87.4838 167.152 87.1438 164.98 87.1438 162.618H85.1438C85.1438 165.173 85.5121 167.564 86.2586 169.781L88.154 169.143ZM94.1438 161.962V162.618H96.1438V161.962H94.1438ZM94.1438 162.618C94.1438 164.093 94.2739 165.484 94.5389 166.786L96.4987 166.388C96.2637 165.232 96.1438 163.976 96.1438 162.618H94.1438ZM94.5389 166.786C94.807 168.105 95.2369 169.293 95.8404 170.337L97.5722 169.337C97.0923 168.506 96.7306 167.527 96.4987 166.388L94.5389 166.786ZM95.854 170.36C96.4996 171.412 97.3468 172.251 98.3912 172.858L99.3964 171.129C98.6491 170.694 98.038 170.095 97.5586 169.314L95.854 170.36ZM98.3912 172.858C99.473 173.487 100.75 173.774 102.175 173.774V171.774C101.017 171.774 100.106 171.541 99.3964 171.129L98.3912 172.858ZM102.175 173.774C103.565 173.774 104.819 173.484 105.896 172.858L104.891 171.129C104.177 171.544 103.285 171.774 102.175 171.774V173.774ZM105.896 172.858C106.944 172.248 107.785 171.405 108.411 170.346L106.689 169.328C106.232 170.102 105.635 170.696 104.891 171.129L105.896 172.858ZM108.416 170.337C109.019 169.293 109.449 168.105 109.717 166.786L107.758 166.388C107.526 167.527 107.164 168.506 106.684 169.337L108.416 170.337ZM109.714 166.802C110.002 165.494 110.144 164.098 110.144 162.618H108.144C108.144 163.971 108.014 165.221 107.761 166.372L109.714 166.802ZM110.144 162.618V161.962H108.144V162.618H110.144ZM110.144 161.962C110.144 160.521 110.002 159.156 109.713 157.868L107.762 158.306C108.015 159.435 108.144 160.653 108.144 161.962H110.144ZM109.717 157.888C109.448 156.563 109.005 155.371 108.376 154.322L106.661 155.351C107.157 156.178 107.527 157.152 107.758 158.286L109.717 157.888ZM108.389 154.345C107.768 153.245 106.93 152.366 105.88 151.731L104.845 153.443C105.586 153.891 106.187 154.512 106.648 155.329L108.389 154.345ZM105.88 151.731C104.798 151.077 103.527 150.774 102.113 150.774V152.774C103.24 152.774 104.136 153.014 104.845 153.443L105.88 151.731ZM102.113 150.774C100.698 150.774 99.4274 151.077 98.3451 151.731L99.38 153.443C100.089 153.014 100.985 152.774 102.113 152.774V150.774ZM98.3362 151.737C97.312 152.371 96.482 153.244 95.8439 154.331L97.5687 155.343C98.0556 154.514 98.6631 153.887 99.3889 153.437L98.3362 151.737ZM95.8404 154.337C95.2369 155.381 94.807 156.569 94.5389 157.888L96.4987 158.286C96.7306 157.147 97.0923 156.168 97.5722 155.337L95.8404 154.337ZM94.5395 157.884C94.2743 159.166 94.1438 160.527 94.1438 161.962H96.1438C96.1438 160.647 96.2633 159.424 96.4981 158.29L94.5395 157.884ZM143.706 171.087H142.706V171.12L142.708 171.152L143.706 171.087ZM143.706 145.368V144.368H142.706V145.368H143.706ZM152.706 145.368H153.706V144.368H152.706V145.368ZM152.706 179.181V180.181H153.706V179.181H152.706ZM144.238 179.181L143.24 179.246L143.301 180.181H144.238V179.181ZM144.706 164.149L144.683 163.15L143.706 163.173V164.149H144.706ZM147.363 164.087H148.363V163.063L147.339 163.087L147.363 164.087ZM146.581 170.368L147.546 170.63L147.547 170.628L146.581 170.368ZM144.238 175.368L145.039 175.966L145.043 175.961L144.238 175.368ZM140.3 178.649L140.738 179.549L140.747 179.544L140.3 178.649ZM130.144 179.118L129.815 180.063L129.823 180.066L129.832 180.068L130.144 179.118ZM126.581 176.899L125.86 177.592L125.867 177.599L125.874 177.607L126.581 176.899ZM124.269 172.993L123.321 173.313L123.324 173.321L123.326 173.328L124.269 172.993ZM123.456 145.368V144.368H122.456V145.368H123.456ZM132.456 145.368H133.456V144.368H132.456V145.368ZM132.8 169.806L131.851 170.122L131.856 170.135L131.86 170.147L132.8 169.806ZM135.363 172.431L135.057 173.383L135.066 173.386L135.363 172.431ZM141.738 171.587L141.168 170.765L141.161 170.77L141.738 171.587ZM144.019 168.524L143.075 168.195L143.072 168.204L144.019 168.524ZM144.706 171.087V145.368H142.706V171.087H144.706ZM143.706 146.368H152.706V144.368H143.706V146.368ZM151.706 145.368V179.181H153.706V145.368H151.706ZM152.706 178.181H144.238V180.181H152.706V178.181ZM145.235 179.115L144.704 171.021L142.708 171.152L143.24 179.246L145.235 179.115ZM144.73 165.149L147.386 165.087L147.339 163.087L144.683 163.15L144.73 165.149ZM146.363 164.087C146.363 166.26 146.111 168.265 145.616 170.109L147.547 170.628C148.093 168.596 148.363 166.414 148.363 164.087H146.363ZM145.616 170.106C145.124 171.919 144.392 173.47 143.432 174.776L145.043 175.961C146.167 174.433 146.997 172.651 147.546 170.63L145.616 170.106ZM143.436 174.77C142.489 176.039 141.299 177.032 139.853 177.755L140.747 179.544C142.468 178.684 143.902 177.489 145.039 175.966L143.436 174.77ZM139.862 177.75C138.442 178.442 136.733 178.806 134.706 178.806V180.806C136.971 180.806 138.992 180.399 140.738 179.549L139.862 177.75ZM134.706 178.806C133.154 178.806 131.74 178.59 130.456 178.168L129.832 180.068C131.34 180.563 132.967 180.806 134.706 180.806V178.806ZM130.473 178.174C129.236 177.743 128.179 177.083 127.288 176.192L125.874 177.607C126.984 178.716 128.302 179.535 129.815 180.063L130.473 178.174ZM127.303 176.207C126.438 175.306 125.735 174.133 125.211 172.658L123.326 173.328C123.928 175.02 124.766 176.451 125.86 177.592L127.303 176.207ZM125.216 172.673C124.719 171.2 124.456 169.387 124.456 167.212H122.456C122.456 169.537 122.736 171.578 123.321 173.313L125.216 172.673ZM124.456 167.212V145.368H122.456V167.212H124.456ZM123.456 146.368H132.456V144.368H123.456V146.368ZM131.456 145.368V167.274H133.456V145.368H131.456ZM131.456 167.274C131.456 168.344 131.578 169.302 131.851 170.122L133.749 169.489C133.564 168.934 133.456 168.205 133.456 167.274H131.456ZM131.86 170.147C132.151 170.948 132.566 171.642 133.124 172.2L134.538 170.786C134.221 170.469 133.949 170.039 133.74 169.464L131.86 170.147ZM133.124 172.2C133.673 172.749 134.32 173.146 135.057 173.383L135.669 171.479C135.238 171.34 134.865 171.112 134.538 170.786L133.124 172.2ZM135.066 173.386C135.78 173.607 136.548 173.712 137.363 173.712V171.712C136.719 171.712 136.154 171.629 135.659 171.476L135.066 173.386ZM137.363 173.712C139.339 173.712 141.025 173.314 142.314 172.404L141.161 170.77C140.325 171.36 139.095 171.712 137.363 171.712V173.712ZM142.307 172.409C143.573 171.532 144.462 170.333 144.966 168.845L143.072 168.204C142.7 169.3 142.069 170.142 141.168 170.765L142.307 172.409ZM144.963 168.854C145.463 167.421 145.706 165.849 145.706 164.149H143.706C143.706 165.658 143.491 167.003 143.075 168.195L144.963 168.854ZM171.113 171.962L170.139 171.732L170.11 171.858L170.113 171.988L171.113 171.962ZM180.175 133.681V132.681H179.384L179.202 133.45L180.175 133.681ZM185.238 133.681L186.221 133.502L186.072 132.681H185.238V133.681ZM186.394 140.056L187.365 140.295L187.416 140.088L187.378 139.877L186.394 140.056ZM176.738 179.181V180.181H177.521L177.708 179.42L176.738 179.181ZM171.3 179.181L170.3 179.207L170.326 180.181H171.3V179.181ZM166.456 133.681L167.438 133.488L167.279 132.681H166.456V133.681ZM173.956 171.962L174.953 172.048L174.965 171.908L174.938 171.77L173.956 171.962ZM173.331 179.181V180.181H174.248L174.328 179.267L173.331 179.181ZM167.269 179.181L166.293 179.397L166.466 180.181H167.269V179.181ZM157.175 133.681V132.681H155.929L156.199 133.897L157.175 133.681ZM194.363 171.806L193.381 171.615L193.355 171.747L193.365 171.882L194.363 171.806ZM201.769 133.681V132.681H200.944L200.787 133.49L201.769 133.681ZM211.05 133.681L212.026 133.897L212.295 132.681H211.05V133.681ZM200.988 179.181V180.181H201.791L201.964 179.397L200.988 179.181ZM194.925 179.181L193.928 179.257L193.998 180.181H194.925V179.181ZM188.081 133.681L189.054 133.45L188.872 132.681H188.081V133.681ZM197.206 172.118L198.206 172.154L198.21 172.019L198.179 171.887L197.206 172.118ZM196.956 179.181V180.181H197.922L197.956 179.216L196.956 179.181ZM191.519 179.181L190.548 179.422L190.737 180.181H191.519V179.181ZM181.8 140.024L180.819 139.831L180.776 140.049L180.829 140.265L181.8 140.024ZM183.05 133.681V132.681H182.228L182.069 133.487L183.05 133.681ZM172.086 172.192L181.148 133.911L179.202 133.45L170.139 171.732L172.086 172.192ZM180.175 134.681H185.238V132.681H180.175V134.681ZM184.254 133.859L185.41 140.234L187.378 139.877L186.221 133.502L184.254 133.859ZM185.423 139.816L175.767 178.941L177.708 179.42L187.365 140.295L185.423 139.816ZM176.738 178.181H171.3V180.181H176.738V178.181ZM172.3 179.155L172.112 171.936L170.113 171.988L170.3 179.207L172.3 179.155ZM165.475 133.873L172.975 172.154L174.938 171.77L167.438 133.488L165.475 133.873ZM172.96 171.876L172.335 179.094L174.328 179.267L174.953 172.048L172.96 171.876ZM173.331 178.181H167.269V180.181H173.331V178.181ZM168.245 178.964L158.151 133.464L156.199 133.897L166.293 179.397L168.245 178.964ZM157.175 134.681H166.456V132.681H157.175V134.681ZM195.344 171.996L202.75 133.871L200.787 133.49L193.381 171.615L195.344 171.996ZM201.769 134.681H211.05V132.681H201.769V134.681ZM210.074 133.465L200.011 178.965L201.964 179.397L212.026 133.897L210.074 133.465ZM200.988 178.181H194.925V180.181H200.988V178.181ZM195.922 179.105L195.36 171.73L193.365 171.882L193.928 179.257L195.922 179.105ZM187.108 133.912L196.233 172.349L198.179 171.887L189.054 133.45L187.108 133.912ZM196.207 172.083L195.957 179.145L197.956 179.216L198.206 172.154L196.207 172.083ZM196.956 178.181H191.519V180.181H196.956V178.181ZM192.489 178.94L182.771 139.784L180.829 140.265L190.548 179.422L192.489 178.94ZM182.781 140.218L184.031 133.874L182.069 133.487L180.819 139.831L182.781 140.218ZM183.05 134.681H188.081V132.681H183.05V134.681ZM232.238 153.712L231.325 154.12L231.329 154.129L232.238 153.712ZM230.581 151.868L230.067 152.726L230.077 152.732L230.581 151.868ZM225.144 151.743L225.56 152.653L225.57 152.648L225.581 152.643L225.144 151.743ZM223.456 153.212L224.301 153.747L224.305 153.741L224.309 153.735L223.456 153.212ZM222.863 155.431V156.431H223.863V155.431H222.863ZM213.863 155.431H212.863V156.431H213.863V155.431ZM214.863 151.337L213.974 150.878L214.863 151.337ZM217.769 147.931L218.379 148.723L218.387 148.717L217.769 147.931ZM222.3 145.587L221.997 144.634L221.994 144.635L222.3 145.587ZM240.05 149.993L239.218 150.548L239.223 150.555L240.05 149.993ZM242.175 175.587L241.193 175.776L241.194 175.78L242.175 175.587ZM243.175 178.649H244.175V178.413L244.069 178.202L243.175 178.649ZM243.175 179.181V180.181H244.175V179.181H243.175ZM234.081 179.181L233.179 179.611L233.451 180.181H234.081V179.181ZM233.081 175.743L232.092 175.891L232.094 175.899L232.095 175.908L233.081 175.743ZM233.956 158.587L234.956 158.575L234.944 157.587H233.956V158.587ZM234.019 163.681V164.681H235.031L235.019 163.668L234.019 163.681ZM223.738 165.243L224.386 166.004L224.394 165.998L224.402 165.991L223.738 165.243ZM222.488 166.931L221.565 166.544L221.56 166.557L221.555 166.57L222.488 166.931ZM222.644 171.149L221.774 171.642L221.777 171.649L221.781 171.655L222.644 171.149ZM224.175 172.587L223.706 173.47L223.717 173.476L223.728 173.481L224.175 172.587ZM232.363 170.274L231.547 169.695L231.542 169.702L231.537 169.71L232.363 170.274ZM233.238 168.024L234.086 167.496L232.335 164.685L232.238 167.995L233.238 168.024ZM235.613 171.837L236.544 172.201L236.726 171.734L236.461 171.308L235.613 171.837ZM234.238 174.493L233.394 173.956L233.39 173.963L233.385 173.97L234.238 174.493ZM232.081 177.087L232.752 177.829L232.762 177.82L232.081 177.087ZM228.925 179.056L229.302 179.982L229.309 179.979L229.315 179.976L228.925 179.056ZM218.706 178.524L218.255 179.417L218.261 179.42L218.268 179.423L218.706 178.524ZM214.581 174.931L213.742 175.475L213.747 175.482L213.751 175.488L214.581 174.931ZM217.019 161.493L217.606 162.303L217.608 162.301L217.019 161.493ZM221.925 159.337L222.163 160.308L222.172 160.306L221.925 159.337ZM233.769 171.556V156.493H231.769V171.556H233.769ZM233.769 156.493C233.769 155.304 233.575 154.227 233.146 153.294L231.329 154.129C231.609 154.738 231.769 155.515 231.769 156.493H233.769ZM233.15 153.304C232.711 152.321 232.016 151.547 231.085 151.004L230.077 152.732C230.647 153.064 231.056 153.52 231.325 154.12L233.15 153.304ZM231.096 151.011C230.164 150.452 229.021 150.212 227.738 150.212V152.212C228.788 152.212 229.541 152.41 230.067 152.726L231.096 151.011ZM227.738 150.212C226.621 150.212 225.6 150.41 224.707 150.844L225.581 152.643C226.146 152.368 226.854 152.212 227.738 152.212V150.212ZM224.728 150.834C223.829 151.245 223.11 151.864 222.604 152.689L224.309 153.735C224.595 153.268 225 152.908 225.56 152.653L224.728 150.834ZM222.611 152.677C222.099 153.485 221.863 154.417 221.863 155.431H223.863C223.863 154.736 224.022 154.188 224.301 153.747L222.611 152.677ZM222.863 154.431H213.863V156.431H222.863V154.431ZM214.863 155.431C214.863 154.155 215.157 152.947 215.751 151.796L213.974 150.878C213.235 152.31 212.863 153.832 212.863 155.431H214.863ZM215.751 151.796C216.344 150.647 217.212 149.622 218.379 148.723L217.158 147.139C215.784 148.198 214.715 149.443 213.974 150.878L215.751 151.796ZM218.387 148.717C219.553 147.799 220.954 147.07 222.606 146.539L221.994 144.635C220.146 145.229 218.527 146.062 217.15 147.145L218.387 148.717ZM222.603 146.54C224.26 146.014 226.135 145.743 228.238 145.743V143.743C225.965 143.743 223.882 144.035 221.997 144.634L222.603 146.54ZM228.238 145.743C230.751 145.743 232.947 146.162 234.844 146.975L235.631 145.137C233.445 144.199 230.974 143.743 228.238 143.743V145.743ZM234.844 146.975C236.718 147.778 238.165 148.969 239.218 150.548L240.882 149.439C239.602 147.518 237.841 146.083 235.631 145.137L234.844 146.975ZM239.223 150.555C240.273 152.103 240.831 154.082 240.831 156.556H242.831C242.831 153.779 242.202 151.383 240.878 149.432L239.223 150.555ZM240.831 156.556V171.024H242.831V156.556H240.831ZM240.831 171.024C240.831 172.912 240.947 174.503 241.193 175.776L243.157 175.397C242.944 174.296 242.831 172.845 242.831 171.024H240.831ZM241.194 175.78C241.437 177.016 241.795 178.126 242.281 179.097L244.069 178.202C243.68 177.423 243.372 176.491 243.156 175.394L241.194 175.78ZM242.175 178.649V179.181H244.175V178.649H242.175ZM243.175 178.181H234.081V180.181H243.175V178.181ZM234.984 178.75C234.598 177.943 234.287 176.893 234.068 175.579L232.095 175.908C232.334 177.343 232.689 178.586 233.179 179.611L234.984 178.75ZM234.07 175.596C233.869 174.248 233.769 172.902 233.769 171.556H231.769C231.769 173.002 231.877 174.447 232.092 175.891L234.07 175.596ZM232.956 158.599L233.019 163.693L235.019 163.668L234.956 158.575L232.956 158.599ZM234.019 162.681H228.988V164.681H234.019V162.681ZM228.988 162.681C227.728 162.681 226.592 162.824 225.598 163.132L226.189 165.042C226.945 164.808 227.872 164.681 228.988 164.681V162.681ZM225.598 163.132C224.616 163.436 223.763 163.883 223.073 164.496L224.402 165.991C224.837 165.604 225.422 165.28 226.189 165.042L225.598 163.132ZM223.089 164.482C222.414 165.057 221.9 165.746 221.565 166.544L223.41 167.317C223.617 166.824 223.936 166.388 224.386 166.004L223.089 164.482ZM221.555 166.57C221.256 167.343 221.113 168.175 221.113 169.056H223.113C223.113 168.394 223.219 167.81 223.42 167.292L221.555 166.57ZM221.113 169.056C221.113 169.986 221.328 170.856 221.774 171.642L223.514 170.656C223.251 170.193 223.113 169.667 223.113 169.056H221.113ZM221.781 171.655C222.236 172.432 222.889 173.036 223.706 173.47L224.644 171.704C224.128 171.43 223.76 171.076 223.506 170.644L221.781 171.655ZM223.728 173.481C224.559 173.897 225.499 174.087 226.519 174.087V172.087C225.747 172.087 225.125 171.944 224.622 171.693L223.728 173.481ZM226.519 174.087C228.008 174.087 229.355 173.788 230.526 173.154L229.574 171.395C228.746 171.844 227.738 172.087 226.519 172.087V174.087ZM230.526 173.154C231.64 172.55 232.541 171.784 233.188 170.839L231.537 169.71C231.1 170.348 230.46 170.915 229.574 171.395L230.526 173.154ZM233.178 170.854C233.814 169.959 234.209 169.02 234.237 168.054L232.238 167.995C232.225 168.445 232.037 169.007 231.547 169.695L233.178 170.854ZM232.389 168.553L234.764 172.366L236.461 171.308L234.086 167.496L232.389 168.553ZM234.681 171.473C234.375 172.257 233.949 173.085 233.394 173.956L235.081 175.03C235.693 174.068 236.183 173.125 236.544 172.201L234.681 171.473ZM233.385 173.97C232.875 174.801 232.217 175.597 231.401 176.354L232.762 177.82C233.696 176.952 234.475 176.018 235.09 175.016L233.385 173.97ZM231.41 176.345C230.628 177.053 229.674 177.652 228.535 178.135L229.315 179.976C230.634 179.418 231.784 178.704 232.752 177.829L231.41 176.345ZM228.548 178.129C227.466 178.569 226.142 178.806 224.55 178.806V180.806C226.333 180.806 227.925 180.542 229.302 179.982L228.548 178.129ZM224.55 178.806C222.541 178.806 220.745 178.407 219.145 177.626L218.268 179.423C220.168 180.351 222.268 180.806 224.55 180.806V178.806ZM219.158 177.632C217.572 176.83 216.331 175.744 215.412 174.373L213.751 175.488C214.873 177.159 216.382 178.469 218.255 179.417L219.158 177.632ZM215.42 174.387C214.532 173.018 214.081 171.459 214.081 169.681H212.081C212.081 171.819 212.63 173.76 213.742 175.475L215.42 174.387ZM214.081 169.681C214.081 168.037 214.39 166.617 214.981 165.398L213.181 164.526C212.439 166.057 212.081 167.783 212.081 169.681H214.081ZM214.981 165.398C215.573 164.178 216.442 163.148 217.606 162.303L216.431 160.684C215.013 161.714 213.923 162.996 213.181 164.526L214.981 165.398ZM217.608 162.301C218.793 161.436 220.302 160.764 222.163 160.308L221.687 158.366C219.632 158.869 217.869 159.634 216.429 160.686L217.608 162.301ZM222.172 160.306C224.031 159.831 226.216 159.587 228.738 159.587V157.587C226.093 157.587 223.736 157.843 221.678 158.368L222.172 160.306ZM228.738 159.587H233.956V157.587H228.738V159.587ZM248.394 155.118L249.341 155.44L249.342 155.437L248.394 155.118ZM256.488 146.056L256.884 146.974L256.892 146.97L256.488 146.056ZM270.144 146.056L269.743 146.972L269.751 146.975L270.144 146.056ZM275.175 149.649L274.424 150.309L274.429 150.315L275.175 149.649ZM278.3 155.118L277.352 155.437L277.353 155.44L278.3 155.118ZM278.3 169.462L279.247 169.784L279.248 169.781L278.3 169.462ZM275.175 174.931L274.424 174.27L274.424 174.271L275.175 174.931ZM256.519 178.524L256.123 179.443L256.126 179.444L256.519 178.524ZM251.488 174.931L250.732 175.586L250.737 175.591L250.741 175.596L251.488 174.931ZM248.394 169.462L247.446 169.781L247.447 169.784L248.394 169.462ZM257.894 169.837L257.028 170.337L257.035 170.349L257.041 170.36L257.894 169.837ZM268.738 169.837L269.599 170.346L269.603 170.337L268.738 169.837ZM269.925 166.587L268.948 166.372L268.947 166.38L268.945 166.388L269.925 166.587ZM269.925 158.087L268.945 158.286L268.947 158.296L268.949 158.306L269.925 158.087ZM268.706 154.837L267.836 155.329L267.842 155.34L267.849 155.351L268.706 154.837ZM260.05 152.587L259.533 151.731L259.524 151.737L260.05 152.587ZM257.894 154.837L257.031 154.331L257.028 154.337L257.894 154.837ZM256.706 158.087L257.686 158.29L257.686 158.286L256.706 158.087ZM248.331 162.618V161.962H246.331V162.618H248.331ZM248.331 161.962C248.331 159.579 248.672 157.408 249.341 155.44L247.447 154.796C246.699 156.996 246.331 159.387 246.331 161.962H248.331ZM249.342 155.437C250.011 153.448 250.979 151.744 252.239 150.309L250.736 148.99C249.288 150.639 248.193 152.58 247.446 154.799L249.342 155.437ZM252.239 150.309C253.49 148.885 255.034 147.772 256.884 146.974L256.091 145.138C253.983 146.047 252.193 147.331 250.736 148.99L252.239 150.309ZM256.892 146.97C258.722 146.161 260.852 145.743 263.3 145.743V143.743C260.624 143.743 258.211 144.2 256.083 145.141L256.892 146.97ZM263.3 145.743C265.748 145.743 267.889 146.161 269.743 146.972L270.545 145.14C268.398 144.201 265.977 143.743 263.3 143.743V145.743ZM269.751 146.975C271.622 147.774 273.174 148.887 274.424 150.309L275.926 148.99C274.468 147.329 272.666 146.045 270.537 145.136L269.751 146.975ZM274.429 150.315C275.707 151.749 276.684 153.451 277.352 155.437L279.248 154.799C278.5 152.577 277.393 150.634 275.921 148.984L274.429 150.315ZM277.353 155.44C278.022 157.408 278.363 159.579 278.363 161.962H280.363C280.363 159.387 279.995 156.996 279.247 154.796L277.353 155.44ZM278.363 161.962V162.618H280.363V161.962H278.363ZM278.363 162.618C278.363 164.98 278.023 167.152 277.352 169.143L279.248 169.781C279.994 167.564 280.363 165.173 280.363 162.618H278.363ZM277.353 169.14C276.685 171.106 275.707 172.812 274.424 174.27L275.926 175.591C277.393 173.924 278.499 171.985 279.247 169.784L277.353 169.14ZM274.424 174.271C273.172 175.696 271.629 176.808 269.779 177.606L270.571 179.443C272.679 178.533 274.469 177.249 275.926 175.591L274.424 174.271ZM269.779 177.606C267.946 178.397 265.814 178.806 263.363 178.806V180.806C266.036 180.806 268.446 180.36 270.571 179.443L269.779 177.606ZM263.363 178.806C260.911 178.806 258.767 178.397 256.912 177.605L256.126 179.444C258.27 180.36 260.689 180.806 263.363 180.806V178.806ZM256.915 177.606C255.064 176.807 253.508 175.693 252.234 174.265L250.741 175.596C252.217 177.251 254.016 178.533 256.123 179.443L256.915 177.606ZM252.243 174.276C250.979 172.817 250.01 171.109 249.341 169.14L247.447 169.784C248.194 171.982 249.288 173.919 250.732 175.586L252.243 174.276ZM249.342 169.143C248.671 167.152 248.331 164.98 248.331 162.618H246.331C246.331 165.173 246.7 167.564 247.446 169.781L249.342 169.143ZM255.331 161.962V162.618H257.331V161.962H255.331ZM255.331 162.618C255.331 164.093 255.461 165.484 255.726 166.786L257.686 166.388C257.451 165.232 257.331 163.976 257.331 162.618H255.331ZM255.726 166.786C255.995 168.105 256.424 169.293 257.028 170.337L258.76 169.337C258.28 168.506 257.918 167.527 257.686 166.388L255.726 166.786ZM257.041 170.36C257.687 171.412 258.534 172.251 259.579 172.858L260.584 171.129C259.837 170.694 259.225 170.095 258.746 169.314L257.041 170.36ZM259.579 172.858C260.661 173.487 261.937 173.774 263.363 173.774V171.774C262.204 171.774 261.294 171.541 260.584 171.129L259.579 172.858ZM263.363 173.774C264.753 173.774 266.007 173.484 267.084 172.858L266.079 171.129C265.364 171.544 264.472 171.774 263.363 171.774V173.774ZM267.084 172.858C268.132 172.248 268.972 171.405 269.598 170.346L267.877 169.328C267.419 170.102 266.822 170.696 266.079 171.129L267.084 172.858ZM269.603 170.337C270.207 169.293 270.637 168.105 270.905 166.786L268.945 166.388C268.713 167.527 268.352 168.506 267.872 169.337L269.603 170.337ZM270.902 166.802C271.19 165.494 271.331 164.098 271.331 162.618H269.331C269.331 163.971 269.202 165.221 268.948 166.372L270.902 166.802ZM271.331 162.618V161.962H269.331V162.618H271.331ZM271.331 161.962C271.331 160.521 271.189 159.156 270.901 157.868L268.949 158.306C269.202 159.435 269.331 160.653 269.331 161.962H271.331ZM270.905 157.888C270.636 156.563 270.193 155.371 269.564 154.322L267.849 155.351C268.345 156.178 268.714 157.152 268.945 158.286L270.905 157.888ZM269.577 154.345C268.955 153.245 268.118 152.366 267.067 151.731L266.033 153.443C266.774 153.891 267.374 154.512 267.836 155.329L269.577 154.345ZM267.067 151.731C265.985 151.077 264.714 150.774 263.3 150.774V152.774C264.428 152.774 265.323 153.014 266.033 153.443L267.067 151.731ZM263.3 150.774C261.886 150.774 260.615 151.077 259.533 151.731L260.567 153.443C261.277 153.014 262.173 152.774 263.3 152.774V150.774ZM259.524 151.737C258.499 152.371 257.67 153.244 257.031 154.331L258.756 155.343C259.243 154.514 259.851 153.887 260.576 153.437L259.524 151.737ZM257.028 154.337C256.424 155.381 255.995 156.569 255.726 157.888L257.686 158.286C257.918 157.147 258.28 156.168 258.76 155.337L257.028 154.337ZM255.727 157.884C255.462 159.166 255.331 160.527 255.331 161.962H257.331C257.331 160.647 257.451 159.424 257.686 158.29L255.727 157.884ZM304.894 171.087H303.894V171.12L303.896 171.152L304.894 171.087ZM304.894 145.368V144.368H303.894V145.368H304.894ZM313.894 145.368H314.894V144.368H313.894V145.368ZM313.894 179.181V180.181H314.894V179.181H313.894ZM305.425 179.181L304.427 179.246L304.489 180.181H305.425V179.181ZM305.894 164.149L305.87 163.15L304.894 163.173V164.149H305.894ZM308.55 164.087H309.55V163.063L308.527 163.087L308.55 164.087ZM307.769 170.368L308.734 170.63L308.735 170.628L307.769 170.368ZM305.425 175.368L306.227 175.966L306.231 175.961L305.425 175.368ZM301.488 178.649L301.925 179.549L301.935 179.544L301.488 178.649ZM291.331 179.118L291.002 180.063L291.011 180.066L291.019 180.068L291.331 179.118ZM287.769 176.899L287.047 177.592L287.054 177.599L287.062 177.607L287.769 176.899ZM285.456 172.993L284.509 173.313L284.511 173.321L284.514 173.328L285.456 172.993ZM284.644 145.368V144.368H283.644V145.368H284.644ZM293.644 145.368H294.644V144.368H293.644V145.368ZM293.988 169.806L293.039 170.122L293.043 170.135L293.048 170.147L293.988 169.806ZM296.55 172.431L296.244 173.383L296.254 173.386L296.55 172.431ZM302.925 171.587L302.356 170.765L302.348 170.77L302.925 171.587ZM305.206 168.524L304.262 168.195L304.259 168.204L305.206 168.524ZM305.894 171.087V145.368H303.894V171.087H305.894ZM304.894 146.368H313.894V144.368H304.894V146.368ZM312.894 145.368V179.181H314.894V145.368H312.894ZM313.894 178.181H305.425V180.181H313.894V178.181ZM306.423 179.115L305.892 171.021L303.896 171.152L304.427 179.246L306.423 179.115ZM305.917 165.149L308.574 165.087L308.527 163.087L305.87 163.15L305.917 165.149ZM307.55 164.087C307.55 166.26 307.299 168.265 306.803 170.109L308.735 170.628C309.281 168.596 309.55 166.414 309.55 164.087H307.55ZM306.804 170.106C306.311 171.919 305.579 173.47 304.619 174.776L306.231 175.961C307.354 174.433 308.185 172.651 308.734 170.63L306.804 170.106ZM304.624 174.77C303.677 176.039 302.486 177.032 301.04 177.755L301.935 179.544C303.655 178.684 305.09 177.489 306.226 175.966L304.624 174.77ZM301.05 177.75C299.629 178.442 297.921 178.806 295.894 178.806V180.806C298.159 180.806 300.179 180.399 301.925 179.549L301.05 177.75ZM295.894 178.806C294.341 178.806 292.927 178.59 291.643 178.168L291.019 180.068C292.527 180.563 294.155 180.806 295.894 180.806V178.806ZM291.66 178.174C290.423 177.743 289.366 177.083 288.476 176.192L287.062 177.607C288.171 178.716 289.489 179.535 291.002 180.063L291.66 178.174ZM288.49 176.207C287.626 175.306 286.922 174.133 286.399 172.658L284.514 173.328C285.115 175.02 285.953 176.451 287.047 177.592L288.49 176.207ZM286.404 172.673C285.906 171.2 285.644 169.387 285.644 167.212H283.644C283.644 169.537 283.923 171.578 284.509 173.313L286.404 172.673ZM285.644 167.212V145.368H283.644V167.212H285.644ZM284.644 146.368H293.644V144.368H284.644V146.368ZM292.644 145.368V167.274H294.644V145.368H292.644ZM292.644 167.274C292.644 168.344 292.766 169.302 293.039 170.122L294.936 169.489C294.751 168.934 294.644 168.205 294.644 167.274H292.644ZM293.048 170.147C293.339 170.948 293.754 171.642 294.312 172.2L295.726 170.786C295.409 170.469 295.136 170.039 294.927 169.464L293.048 170.147ZM294.312 172.2C294.86 172.749 295.508 173.146 296.244 173.383L296.856 171.479C296.426 171.34 296.052 171.112 295.726 170.786L294.312 172.2ZM296.254 173.386C296.967 173.607 297.735 173.712 298.55 173.712V171.712C297.906 171.712 297.341 171.629 296.846 171.476L296.254 173.386ZM298.55 173.712C300.526 173.712 302.213 173.314 303.502 172.404L302.348 170.77C301.513 171.36 300.282 171.712 298.55 171.712V173.712ZM303.494 172.409C304.761 171.532 305.65 170.333 306.153 168.845L304.259 168.204C303.888 169.3 303.256 170.142 302.356 170.765L303.494 172.409ZM306.15 168.854C306.651 167.421 306.894 165.849 306.894 164.149H304.894C304.894 165.658 304.678 167.003 304.262 168.195L306.15 168.854Z" fill="white"/>
<circle cx="81.981" cy="74.3735" r="31" fill="white"/>
<circle cx="306.208" cy="233.41" r="31" fill="white"/>
</g>
<defs>
<filter id="filter0_d_358_2" x="0" y="0" width="402" height="308" filterUnits="userSpaceOnUse" color-interpolation-filters="sRGB">
<feFlood flood-opacity="0" result="BackgroundImageFix"/>
<feColorMatrix in="SourceAlpha" type="matrix" values="0 0 0 0 0 0 0 0 0 0 0 0 0 0 0 0 0 0 127 0" result="hardAlpha"/>
<feOffset dy="4"/>
<feGaussianBlur stdDeviation="2"/>
<feComposite in2="hardAlpha" operator="out"/>
<feColorMatrix type="matrix" values="0 0 0 0 0 0 0 0 0 0 0 0 0 0 0 0 0 0 0.25 0"/>
<feBlend mode="normal" in2="BackgroundImageFix" result="effect1_dropShadow_358_2"/>
<feBlend mode="normal" in="SourceGraphic" in2="effect1_dropShadow_358_2" result="shape"/>
</filter>
</defs>
</svg>
